<?xml version="1.0" encoding="UTF-8"?>
<svg width="1319px" height="878px" viewBox="0 0 1319 878" version="1.1" xmlns="http://www.w3.org/2000/svg" xmlns:xlink="http://www.w3.org/1999/xlink">
    <title>Group 10</title>
    <g id="Page-1" stroke="none" stroke-width="1" fill="none" fill-rule="evenodd">
        <g id="Group-10" fill-rule="nonzero">
            <rect id="Rectangle" fill="#C4C4C4" x="0" y="0" width="1319" height="878"></rect>
            <path d="M520.25,439 L514.438,439 L514.438,400.469 L502.781,404.75 L502.781,399.5 L519.344,393.281 L520.25,393.281 L520.25,439 Z M546.594,413.438 L550.938,413.438 C553.667,413.396 555.812,412.677 557.375,411.281 C558.938,409.885 559.719,408 559.719,405.625 C559.719,400.292 557.062,397.625 551.75,397.625 C549.25,397.625 547.25,398.344 545.75,399.781 C544.271,401.198 543.531,403.083 543.531,405.438 L537.75,405.438 C537.75,401.833 539.062,398.844 541.688,396.469 C544.333,394.073 547.688,392.875 551.75,392.875 C556.042,392.875 559.406,394.01 561.844,396.281 C564.281,398.552 565.5,401.708 565.5,405.75 C565.5,407.729 564.854,409.646 563.562,411.5 C562.292,413.354 560.552,414.74 558.344,415.656 C560.844,416.448 562.771,417.76 564.125,419.594 C565.5,421.427 566.188,423.667 566.188,426.312 C566.188,430.396 564.854,433.635 562.188,436.031 C559.521,438.427 556.052,439.625 551.781,439.625 C547.51,439.625 544.031,438.469 541.344,436.156 C538.677,433.844 537.344,430.792 537.344,427 L543.156,427 C543.156,429.396 543.938,431.312 545.5,432.75 C547.062,434.188 549.156,434.906 551.781,434.906 C554.573,434.906 556.708,434.177 558.188,432.719 C559.667,431.26 560.406,429.167 560.406,426.438 C560.406,423.792 559.594,421.76 557.969,420.344 C556.344,418.927 554,418.198 550.938,418.156 L546.594,418.156 L546.594,413.438 Z M594.125,439 L588.312,439 L588.312,400.469 L576.656,404.75 L576.656,399.5 L593.219,393.281 L594.125,393.281 L594.125,439 Z M634.219,419 C633.01,420.438 631.562,421.594 629.875,422.469 C628.208,423.344 626.375,423.781 624.375,423.781 C621.75,423.781 619.458,423.135 617.5,421.844 C615.562,420.552 614.062,418.74 613,416.406 C611.938,414.052 611.406,411.458 611.406,408.625 C611.406,405.583 611.979,402.844 613.125,400.406 C614.292,397.969 615.938,396.104 618.062,394.812 C620.188,393.521 622.667,392.875 625.5,392.875 C630,392.875 633.542,394.562 636.125,397.938 C638.729,401.292 640.031,405.875 640.031,411.688 L640.031,413.375 C640.031,422.229 638.281,428.698 634.781,432.781 C631.281,436.844 626,438.927 618.938,439.031 L617.812,439.031 L617.812,434.156 L619.031,434.156 C623.802,434.073 627.469,432.833 630.031,430.438 C632.594,428.021 633.99,424.208 634.219,419 Z M625.312,419 C627.25,419 629.031,418.406 630.656,417.219 C632.302,416.031 633.5,414.562 634.25,412.812 L634.25,410.5 C634.25,406.708 633.427,403.625 631.781,401.25 C630.135,398.875 628.052,397.688 625.531,397.688 C622.99,397.688 620.948,398.667 619.406,400.625 C617.865,402.562 617.094,405.125 617.094,408.312 C617.094,411.417 617.833,413.979 619.312,416 C620.812,418 622.812,419 625.312,419 Z M677.812,417.531 L685.312,405.188 L692.062,405.188 L681,421.906 L692.406,439 L685.719,439 L677.906,426.344 L670.094,439 L663.375,439 L674.781,421.906 L663.719,405.188 L670.406,405.188 L677.812,417.531 Z M743.094,405.375 C743.094,407.646 742.49,409.667 741.281,411.438 C740.094,413.208 738.479,414.594 736.438,415.594 C738.812,416.615 740.688,418.104 742.062,420.062 C743.458,422.021 744.156,424.24 744.156,426.719 C744.156,430.656 742.823,433.792 740.156,436.125 C737.51,438.458 734.021,439.625 729.688,439.625 C725.312,439.625 721.802,438.458 719.156,436.125 C716.531,433.771 715.219,430.635 715.219,426.719 C715.219,424.26 715.885,422.042 717.219,420.062 C718.573,418.083 720.438,416.583 722.812,415.562 C720.792,414.562 719.198,413.177 718.031,411.406 C716.865,409.635 716.281,407.625 716.281,405.375 C716.281,401.542 717.51,398.5 719.969,396.25 C722.427,394 725.667,392.875 729.688,392.875 C733.688,392.875 736.917,394 739.375,396.25 C741.854,398.5 743.094,401.542 743.094,405.375 Z M738.375,426.594 C738.375,424.052 737.562,421.979 735.938,420.375 C734.333,418.771 732.229,417.969 729.625,417.969 C727.021,417.969 724.927,418.76 723.344,420.344 C721.781,421.927 721,424.01 721,426.594 C721,429.177 721.76,431.208 723.281,432.688 C724.823,434.167 726.958,434.906 729.688,434.906 C732.396,434.906 734.521,434.167 736.062,432.688 C737.604,431.188 738.375,429.156 738.375,426.594 Z M729.688,397.625 C727.417,397.625 725.573,398.333 724.156,399.75 C722.76,401.146 722.062,403.052 722.062,405.469 C722.062,407.781 722.75,409.656 724.125,411.094 C725.521,412.51 727.375,413.219 729.688,413.219 C732,413.219 733.844,412.51 735.219,411.094 C736.615,409.656 737.312,407.781 737.312,405.469 C737.312,403.156 736.594,401.271 735.156,399.812 C733.719,398.354 731.896,397.625 729.688,397.625 Z M781.812,396.75 L762.969,439 L756.906,439 L775.688,398.25 L751.062,398.25 L751.062,393.5 L781.812,393.5 L781.812,396.75 Z M816.969,405.375 C816.969,407.646 816.365,409.667 815.156,411.438 C813.969,413.208 812.354,414.594 810.312,415.594 C812.688,416.615 814.562,418.104 815.938,420.062 C817.333,422.021 818.031,424.24 818.031,426.719 C818.031,430.656 816.698,433.792 814.031,436.125 C811.385,438.458 807.896,439.625 803.562,439.625 C799.188,439.625 795.677,438.458 793.031,436.125 C790.406,433.771 789.094,430.635 789.094,426.719 C789.094,424.26 789.76,422.042 791.094,420.062 C792.448,418.083 794.312,416.583 796.688,415.562 C794.667,414.562 793.073,413.177 791.906,411.406 C790.74,409.635 790.156,407.625 790.156,405.375 C790.156,401.542 791.385,398.5 793.844,396.25 C796.302,394 799.542,392.875 803.562,392.875 C807.562,392.875 810.792,394 813.25,396.25 C815.729,398.5 816.969,401.542 816.969,405.375 Z M812.25,426.594 C812.25,424.052 811.438,421.979 809.812,420.375 C808.208,418.771 806.104,417.969 803.5,417.969 C800.896,417.969 798.802,418.76 797.219,420.344 C795.656,421.927 794.875,424.01 794.875,426.594 C794.875,429.177 795.635,431.208 797.156,432.688 C798.698,434.167 800.833,434.906 803.562,434.906 C806.271,434.906 808.396,434.167 809.938,432.688 C811.479,431.188 812.25,429.156 812.25,426.594 Z M803.562,397.625 C801.292,397.625 799.448,398.333 798.031,399.75 C796.635,401.146 795.938,403.052 795.938,405.469 C795.938,407.781 796.625,409.656 798,411.094 C799.396,412.51 801.25,413.219 803.562,413.219 C805.875,413.219 807.719,412.51 809.094,411.094 C810.49,409.656 811.188,407.781 811.188,405.469 C811.188,403.156 810.469,401.271 809.031,399.812 C807.594,398.354 805.771,397.625 803.562,397.625 Z" id="Shape" fill="#000000"></path>
        </g>
    </g>
</svg>