<?xml version="1.0" encoding="UTF-8"?>
<svg width="642px" height="1691px" viewBox="0 0 642 1691" version="1.1" xmlns="http://www.w3.org/2000/svg" xmlns:xlink="http://www.w3.org/1999/xlink">
    <title>Group 11 (1)</title>
    <g id="Page-1" stroke="none" stroke-width="1" fill="none" fill-rule="evenodd">
        <g id="Group-11-(1)" fill-rule="nonzero">
            <rect id="Rectangle" fill="#C4C4C4" x="0" y="0" width="642" height="1691"></rect>
            <path d="M185.938,821.469 L185.938,826.375 L184.875,826.375 C180.375,826.458 176.792,827.792 174.125,830.375 C171.458,832.958 169.917,836.594 169.5,841.281 C171.896,838.531 175.167,837.156 179.312,837.156 C183.271,837.156 186.427,838.552 188.781,841.344 C191.156,844.135 192.344,847.74 192.344,852.156 C192.344,856.844 191.062,860.594 188.5,863.406 C185.958,866.219 182.542,867.625 178.25,867.625 C173.896,867.625 170.365,865.958 167.656,862.625 C164.948,859.271 163.594,854.958 163.594,849.688 L163.594,847.469 C163.594,839.094 165.375,832.698 168.938,828.281 C172.521,823.844 177.844,821.573 184.906,821.469 L185.938,821.469 Z M178.344,841.969 C176.365,841.969 174.542,842.562 172.875,843.75 C171.208,844.938 170.052,846.427 169.406,848.219 L169.406,850.344 C169.406,854.094 170.25,857.115 171.938,859.406 C173.625,861.698 175.729,862.844 178.25,862.844 C180.854,862.844 182.896,861.885 184.375,859.969 C185.875,858.052 186.625,855.542 186.625,852.438 C186.625,849.312 185.865,846.792 184.344,844.875 C182.844,842.938 180.844,841.969 178.344,841.969 Z M224.594,851.719 L230.906,851.719 L230.906,856.438 L224.594,856.438 L224.594,867 L218.781,867 L218.781,856.438 L198.062,856.438 L198.062,853.031 L218.438,821.5 L224.594,821.5 L224.594,851.719 Z M204.625,851.719 L218.781,851.719 L218.781,829.406 L218.094,830.656 L204.625,851.719 Z M266.938,867 L237.125,867 L237.125,862.844 L252.875,845.344 C255.208,842.698 256.812,840.552 257.688,838.906 C258.583,837.24 259.031,835.521 259.031,833.75 C259.031,831.375 258.312,829.427 256.875,827.906 C255.438,826.385 253.521,825.625 251.125,825.625 C248.25,825.625 246.01,826.448 244.406,828.094 C242.823,829.719 242.031,831.99 242.031,834.906 L236.25,834.906 C236.25,830.719 237.594,827.333 240.281,824.75 C242.99,822.167 246.604,820.875 251.125,820.875 C255.354,820.875 258.698,821.99 261.156,824.219 C263.615,826.427 264.844,829.375 264.844,833.062 C264.844,837.542 261.99,842.875 256.281,849.062 L244.094,862.281 L266.938,862.281 L266.938,867 Z M302.875,845.531 L310.375,833.188 L317.125,833.188 L306.062,849.906 L317.469,867 L310.781,867 L302.969,854.344 L295.156,867 L288.438,867 L299.844,849.906 L288.781,833.188 L295.469,833.188 L302.875,845.531 Z M359.562,867 L353.75,867 L353.75,828.469 L342.094,832.75 L342.094,827.5 L358.656,821.281 L359.562,821.281 L359.562,867 Z M400.188,821.469 L400.188,826.375 L399.125,826.375 C394.625,826.458 391.042,827.792 388.375,830.375 C385.708,832.958 384.167,836.594 383.75,841.281 C386.146,838.531 389.417,837.156 393.562,837.156 C397.521,837.156 400.677,838.552 403.031,841.344 C405.406,844.135 406.594,847.74 406.594,852.156 C406.594,856.844 405.312,860.594 402.75,863.406 C400.208,866.219 396.792,867.625 392.5,867.625 C388.146,867.625 384.615,865.958 381.906,862.625 C379.198,859.271 377.844,854.958 377.844,849.688 L377.844,847.469 C377.844,839.094 379.625,832.698 383.188,828.281 C386.771,823.844 392.094,821.573 399.156,821.469 L400.188,821.469 Z M392.594,841.969 C390.615,841.969 388.792,842.562 387.125,843.75 C385.458,844.938 384.302,846.427 383.656,848.219 L383.656,850.344 C383.656,854.094 384.5,857.115 386.188,859.406 C387.875,861.698 389.979,862.844 392.5,862.844 C395.104,862.844 397.146,861.885 398.625,859.969 C400.125,858.052 400.875,855.542 400.875,852.438 C400.875,849.312 400.115,846.792 398.594,844.875 C397.094,842.938 395.094,841.969 392.594,841.969 Z M436.594,847 C435.385,848.438 433.938,849.594 432.25,850.469 C430.583,851.344 428.75,851.781 426.75,851.781 C424.125,851.781 421.833,851.135 419.875,849.844 C417.938,848.552 416.438,846.74 415.375,844.406 C414.312,842.052 413.781,839.458 413.781,836.625 C413.781,833.583 414.354,830.844 415.5,828.406 C416.667,825.969 418.312,824.104 420.438,822.812 C422.562,821.521 425.042,820.875 427.875,820.875 C432.375,820.875 435.917,822.562 438.5,825.938 C441.104,829.292 442.406,833.875 442.406,839.688 L442.406,841.375 C442.406,850.229 440.656,856.698 437.156,860.781 C433.656,864.844 428.375,866.927 421.312,867.031 L420.188,867.031 L420.188,862.156 L421.406,862.156 C426.177,862.073 429.844,860.833 432.406,858.438 C434.969,856.021 436.365,852.208 436.594,847 Z M427.688,847 C429.625,847 431.406,846.406 433.031,845.219 C434.677,844.031 435.875,842.562 436.625,840.812 L436.625,838.5 C436.625,834.708 435.802,831.625 434.156,829.25 C432.51,826.875 430.427,825.688 427.906,825.688 C425.365,825.688 423.323,826.667 421.781,828.625 C420.24,830.562 419.469,833.125 419.469,836.312 C419.469,839.417 420.208,841.979 421.688,844 C423.188,846 425.188,847 427.688,847 Z M470.375,867 L464.562,867 L464.562,828.469 L452.906,832.75 L452.906,827.5 L469.469,821.281 L470.375,821.281 L470.375,867 Z" id="Shape" fill="#000000"></path>
        </g>
    </g>
</svg>