<?xml version="1.0" encoding="UTF-8"?>
<svg width="660px" height="2003px" viewBox="0 0 660 2003" version="1.1" xmlns="http://www.w3.org/2000/svg" xmlns:xlink="http://www.w3.org/1999/xlink">
    <title>Group 9 (1)</title>
    <g id="Page-1" stroke="none" stroke-width="1" fill="none" fill-rule="evenodd">
        <g id="Group-9-(1)" fill-rule="nonzero">
            <rect id="Rectangle" fill="#C4C4C4" x="0" y="0" width="660" height="2003"></rect>
            <path d="M194.938,977.469 L194.938,982.375 L193.875,982.375 C189.375,982.458 185.792,983.792 183.125,986.375 C180.458,988.958 178.917,992.594 178.5,997.281 C180.896,994.531 184.167,993.156 188.312,993.156 C192.271,993.156 195.427,994.552 197.781,997.344 C200.156,1000.14 201.344,1003.74 201.344,1008.16 C201.344,1012.84 200.062,1016.59 197.5,1019.41 C194.958,1022.22 191.542,1023.62 187.25,1023.62 C182.896,1023.62 179.365,1021.96 176.656,1018.62 C173.948,1015.27 172.594,1010.96 172.594,1005.69 L172.594,1003.47 C172.594,995.094 174.375,988.698 177.938,984.281 C181.521,979.844 186.844,977.573 193.906,977.469 L194.938,977.469 Z M187.344,997.969 C185.365,997.969 183.542,998.562 181.875,999.75 C180.208,1000.94 179.052,1002.43 178.406,1004.22 L178.406,1006.34 C178.406,1010.09 179.25,1013.11 180.938,1015.41 C182.625,1017.7 184.729,1018.84 187.25,1018.84 C189.854,1018.84 191.896,1017.89 193.375,1015.97 C194.875,1014.05 195.625,1011.54 195.625,1008.44 C195.625,1005.31 194.865,1002.79 193.344,1000.88 C191.844,998.938 189.844,997.969 187.344,997.969 Z M231.875,977.469 L231.875,982.375 L230.812,982.375 C226.312,982.458 222.729,983.792 220.062,986.375 C217.396,988.958 215.854,992.594 215.438,997.281 C217.833,994.531 221.104,993.156 225.25,993.156 C229.208,993.156 232.365,994.552 234.719,997.344 C237.094,1000.14 238.281,1003.74 238.281,1008.16 C238.281,1012.84 237,1016.59 234.438,1019.41 C231.896,1022.22 228.479,1023.62 224.188,1023.62 C219.833,1023.62 216.302,1021.96 213.594,1018.62 C210.885,1015.27 209.531,1010.96 209.531,1005.69 L209.531,1003.47 C209.531,995.094 211.312,988.698 214.875,984.281 C218.458,979.844 223.781,977.573 230.844,977.469 L231.875,977.469 Z M224.281,997.969 C222.302,997.969 220.479,998.562 218.812,999.75 C217.146,1000.94 215.99,1002.43 215.344,1004.22 L215.344,1006.34 C215.344,1010.09 216.188,1013.11 217.875,1015.41 C219.562,1017.7 221.667,1018.84 224.188,1018.84 C226.792,1018.84 228.833,1017.89 230.312,1015.97 C231.812,1014.05 232.562,1011.54 232.562,1008.44 C232.562,1005.31 231.802,1002.79 230.281,1000.88 C228.781,998.938 226.781,997.969 224.281,997.969 Z M274.656,1003.59 C274.656,1010.36 273.5,1015.4 271.188,1018.69 C268.875,1021.98 265.26,1023.62 260.344,1023.62 C255.49,1023.62 251.896,1022.02 249.562,1018.81 C247.229,1015.58 246.021,1010.77 245.938,1004.38 L245.938,996.656 C245.938,989.969 247.094,985 249.406,981.75 C251.719,978.5 255.344,976.875 260.281,976.875 C265.177,976.875 268.781,978.448 271.094,981.594 C273.406,984.719 274.594,989.552 274.656,996.094 L274.656,1003.59 Z M268.875,995.688 C268.875,990.792 268.188,987.229 266.812,985 C265.438,982.75 263.26,981.625 260.281,981.625 C257.323,981.625 255.167,982.74 253.812,984.969 C252.458,987.198 251.76,990.625 251.719,995.25 L251.719,1004.5 C251.719,1009.42 252.427,1013.05 253.844,1015.41 C255.281,1017.74 257.448,1018.91 260.344,1018.91 C263.198,1018.91 265.312,1017.8 266.688,1015.59 C268.083,1013.39 268.812,1009.91 268.875,1005.16 L268.875,995.688 Z M311.875,1001.53 L319.375,989.188 L326.125,989.188 L315.062,1005.91 L326.469,1023 L319.781,1023 L311.969,1010.34 L304.156,1023 L297.438,1023 L308.844,1005.91 L297.781,989.188 L304.469,989.188 L311.875,1001.53 Z M379.375,1023 L349.562,1023 L349.562,1018.84 L365.312,1001.34 C367.646,998.698 369.25,996.552 370.125,994.906 C371.021,993.24 371.469,991.521 371.469,989.75 C371.469,987.375 370.75,985.427 369.312,983.906 C367.875,982.385 365.958,981.625 363.562,981.625 C360.688,981.625 358.448,982.448 356.844,984.094 C355.26,985.719 354.469,987.99 354.469,990.906 L348.688,990.906 C348.688,986.719 350.031,983.333 352.719,980.75 C355.427,978.167 359.042,976.875 363.562,976.875 C367.792,976.875 371.135,977.99 373.594,980.219 C376.052,982.427 377.281,985.375 377.281,989.062 C377.281,993.542 374.427,998.875 368.719,1005.06 L356.531,1018.28 L379.375,1018.28 L379.375,1023 Z M415.031,1003.59 C415.031,1010.36 413.875,1015.4 411.562,1018.69 C409.25,1021.98 405.635,1023.62 400.719,1023.62 C395.865,1023.62 392.271,1022.02 389.938,1018.81 C387.604,1015.58 386.396,1010.77 386.312,1004.38 L386.312,996.656 C386.312,989.969 387.469,985 389.781,981.75 C392.094,978.5 395.719,976.875 400.656,976.875 C405.552,976.875 409.156,978.448 411.469,981.594 C413.781,984.719 414.969,989.552 415.031,996.094 L415.031,1003.59 Z M409.25,995.688 C409.25,990.792 408.562,987.229 407.188,985 C405.812,982.75 403.635,981.625 400.656,981.625 C397.698,981.625 395.542,982.74 394.188,984.969 C392.833,987.198 392.135,990.625 392.094,995.25 L392.094,1004.5 C392.094,1009.42 392.802,1013.05 394.219,1015.41 C395.656,1017.74 397.823,1018.91 400.719,1018.91 C403.573,1018.91 405.688,1017.8 407.062,1015.59 C408.458,1013.39 409.188,1009.91 409.25,1005.16 L409.25,995.688 Z M451.969,1003.59 C451.969,1010.36 450.812,1015.4 448.5,1018.69 C446.188,1021.98 442.573,1023.62 437.656,1023.62 C432.802,1023.62 429.208,1022.02 426.875,1018.81 C424.542,1015.58 423.333,1010.77 423.25,1004.38 L423.25,996.656 C423.25,989.969 424.406,985 426.719,981.75 C429.031,978.5 432.656,976.875 437.594,976.875 C442.49,976.875 446.094,978.448 448.406,981.594 C450.719,984.719 451.906,989.552 451.969,996.094 L451.969,1003.59 Z M446.188,995.688 C446.188,990.792 445.5,987.229 444.125,985 C442.75,982.75 440.573,981.625 437.594,981.625 C434.635,981.625 432.479,982.74 431.125,984.969 C429.771,987.198 429.073,990.625 429.031,995.25 L429.031,1004.5 C429.031,1009.42 429.74,1013.05 431.156,1015.41 C432.594,1017.74 434.76,1018.91 437.656,1018.91 C440.51,1018.91 442.625,1017.8 444,1015.59 C445.396,1013.39 446.125,1009.91 446.188,1005.16 L446.188,995.688 Z M468.781,997.438 L473.125,997.438 C475.854,997.396 478,996.677 479.562,995.281 C481.125,993.885 481.906,992 481.906,989.625 C481.906,984.292 479.25,981.625 473.938,981.625 C471.438,981.625 469.438,982.344 467.938,983.781 C466.458,985.198 465.719,987.083 465.719,989.438 L459.938,989.438 C459.938,985.833 461.25,982.844 463.875,980.469 C466.521,978.073 469.875,976.875 473.938,976.875 C478.229,976.875 481.594,978.01 484.031,980.281 C486.469,982.552 487.688,985.708 487.688,989.75 C487.688,991.729 487.042,993.646 485.75,995.5 C484.479,997.354 482.74,998.74 480.531,999.656 C483.031,1000.45 484.958,1001.76 486.312,1003.59 C487.688,1005.43 488.375,1007.67 488.375,1010.31 C488.375,1014.4 487.042,1017.64 484.375,1020.03 C481.708,1022.43 478.24,1023.62 473.969,1023.62 C469.698,1023.62 466.219,1022.47 463.531,1020.16 C460.865,1017.84 459.531,1014.79 459.531,1011 L465.344,1011 C465.344,1013.4 466.125,1015.31 467.688,1016.75 C469.25,1018.19 471.344,1018.91 473.969,1018.91 C476.76,1018.91 478.896,1018.18 480.375,1016.72 C481.854,1015.26 482.594,1013.17 482.594,1010.44 C482.594,1007.79 481.781,1005.76 480.156,1004.34 C478.531,1002.93 476.188,1002.2 473.125,1002.16 L468.781,1002.16 L468.781,997.438 Z" id="Shape" fill="#000000"></path>
        </g>
    </g>
</svg>