<?xml version="1.0" encoding="UTF-8"?>
<svg width="952px" height="3345px" viewBox="0 0 952 3345" version="1.1" xmlns="http://www.w3.org/2000/svg" xmlns:xlink="http://www.w3.org/1999/xlink">
    <title>Group 12</title>
    <g id="Page-1" stroke="none" stroke-width="1" fill="none" fill-rule="evenodd">
        <g id="Group-12" fill-rule="nonzero">
            <rect id="Rectangle" fill="#C4C4C4" x="0" y="0" width="952" height="3345"></rect>
            <path d="M340.18,1716.5 C338.82,1718.12 337.191,1719.42 335.293,1720.4 C333.418,1721.39 331.355,1721.88 329.105,1721.88 C326.152,1721.88 323.574,1721.15 321.371,1719.7 C319.191,1718.25 317.504,1716.21 316.309,1713.58 C315.113,1710.93 314.516,1708.02 314.516,1704.83 C314.516,1701.41 315.16,1698.32 316.449,1695.58 C317.762,1692.84 319.613,1690.74 322.004,1689.29 C324.395,1687.84 327.184,1687.11 330.371,1687.11 C335.434,1687.11 339.418,1689.01 342.324,1692.8 C345.254,1696.58 346.719,1701.73 346.719,1708.27 L346.719,1710.17 C346.719,1720.13 344.75,1727.41 340.812,1732 C336.875,1736.57 330.934,1738.92 322.988,1739.04 L321.723,1739.04 L321.723,1733.55 L323.094,1733.55 C328.461,1733.46 332.586,1732.06 335.469,1729.37 C338.352,1726.65 339.922,1722.36 340.18,1716.5 Z M330.16,1716.5 C332.34,1716.5 334.344,1715.83 336.172,1714.5 C338.023,1713.16 339.371,1711.51 340.215,1709.54 L340.215,1706.94 C340.215,1702.67 339.289,1699.2 337.438,1696.53 C335.586,1693.86 333.242,1692.52 330.406,1692.52 C327.547,1692.52 325.25,1693.62 323.516,1695.83 C321.781,1698.01 320.914,1700.89 320.914,1704.48 C320.914,1707.97 321.746,1710.85 323.41,1713.12 C325.098,1715.38 327.348,1716.5 330.16,1716.5 Z M358.672,1713.34 L361.273,1687.81 L387.5,1687.81 L387.5,1693.82 L366.793,1693.82 L365.246,1707.78 C367.754,1706.3 370.602,1705.57 373.789,1705.57 C378.453,1705.57 382.156,1707.11 384.898,1710.21 C387.641,1713.28 389.012,1717.44 389.012,1722.69 C389.012,1727.96 387.582,1732.12 384.723,1735.17 C381.887,1738.19 377.914,1739.7 372.805,1739.7 C368.281,1739.7 364.59,1738.45 361.73,1735.94 C358.871,1733.43 357.242,1729.96 356.844,1725.54 L362.996,1725.54 C363.395,1728.46 364.438,1730.68 366.125,1732.18 C367.812,1733.66 370.039,1734.39 372.805,1734.39 C375.828,1734.39 378.195,1733.36 379.906,1731.3 C381.641,1729.24 382.508,1726.39 382.508,1722.76 C382.508,1719.34 381.57,1716.59 379.695,1714.53 C377.844,1712.45 375.371,1711.4 372.277,1711.4 C369.441,1711.4 367.215,1712.02 365.598,1713.27 L363.875,1714.67 L358.672,1713.34 Z M429.652,1739 L396.113,1739 L396.113,1734.32 L413.832,1714.64 C416.457,1711.66 418.262,1709.25 419.246,1707.39 C420.254,1705.52 420.758,1703.59 420.758,1701.59 C420.758,1698.92 419.949,1696.73 418.332,1695.02 C416.715,1693.31 414.559,1692.45 411.863,1692.45 C408.629,1692.45 406.109,1693.38 404.305,1695.23 C402.523,1697.06 401.633,1699.61 401.633,1702.89 L395.129,1702.89 C395.129,1698.18 396.641,1694.38 399.664,1691.47 C402.711,1688.56 406.777,1687.11 411.863,1687.11 C416.621,1687.11 420.383,1688.36 423.148,1690.87 C425.914,1693.36 427.297,1696.67 427.297,1700.82 C427.297,1705.86 424.086,1711.86 417.664,1718.82 L403.953,1733.69 L429.652,1733.69 L429.652,1739 Z M467.832,1714.85 L476.27,1700.96 L483.863,1700.96 L471.418,1719.77 L484.25,1739 L476.727,1739 L467.938,1724.76 L459.148,1739 L451.59,1739 L464.422,1719.77 L451.977,1700.96 L459.5,1700.96 L467.832,1714.85 Z M517.438,1710.24 L522.324,1710.24 C525.395,1710.2 527.809,1709.39 529.566,1707.82 C531.324,1706.25 532.203,1704.12 532.203,1701.45 C532.203,1695.45 529.215,1692.45 523.238,1692.45 C520.426,1692.45 518.176,1693.26 516.488,1694.88 C514.824,1696.47 513.992,1698.59 513.992,1701.24 L507.488,1701.24 C507.488,1697.19 508.965,1693.82 511.918,1691.15 C514.895,1688.46 518.668,1687.11 523.238,1687.11 C528.066,1687.11 531.852,1688.39 534.594,1690.94 C537.336,1693.5 538.707,1697.05 538.707,1701.59 C538.707,1703.82 537.98,1705.98 536.527,1708.06 C535.098,1710.15 533.141,1711.71 530.656,1712.74 C533.469,1713.63 535.637,1715.11 537.16,1717.17 C538.707,1719.23 539.48,1721.75 539.48,1724.73 C539.48,1729.32 537.98,1732.96 534.98,1735.66 C531.98,1738.36 528.078,1739.7 523.273,1739.7 C518.469,1739.7 514.555,1738.4 511.531,1735.8 C508.531,1733.2 507.031,1729.77 507.031,1725.5 L513.57,1725.5 C513.57,1728.2 514.449,1730.35 516.207,1731.97 C517.965,1733.59 520.32,1734.39 523.273,1734.39 C526.414,1734.39 528.816,1733.57 530.48,1731.93 C532.145,1730.29 532.977,1727.94 532.977,1724.87 C532.977,1721.89 532.062,1719.61 530.234,1718.01 C528.406,1716.42 525.77,1715.6 522.324,1715.55 L517.438,1715.55 L517.438,1710.24 Z M557.867,1710.24 L562.754,1710.24 C565.824,1710.2 568.238,1709.39 569.996,1707.82 C571.754,1706.25 572.633,1704.12 572.633,1701.45 C572.633,1695.45 569.645,1692.45 563.668,1692.45 C560.855,1692.45 558.605,1693.26 556.918,1694.88 C555.254,1696.47 554.422,1698.59 554.422,1701.24 L547.918,1701.24 C547.918,1697.19 549.395,1693.82 552.348,1691.15 C555.324,1688.46 559.098,1687.11 563.668,1687.11 C568.496,1687.11 572.281,1688.39 575.023,1690.94 C577.766,1693.5 579.137,1697.05 579.137,1701.59 C579.137,1703.82 578.41,1705.98 576.957,1708.06 C575.527,1710.15 573.57,1711.71 571.086,1712.74 C573.898,1713.63 576.066,1715.11 577.59,1717.17 C579.137,1719.23 579.91,1721.75 579.91,1724.73 C579.91,1729.32 578.41,1732.96 575.41,1735.66 C572.41,1738.36 568.508,1739.7 563.703,1739.7 C558.898,1739.7 554.984,1738.4 551.961,1735.8 C548.961,1733.2 547.461,1729.77 547.461,1725.5 L554,1725.5 C554,1728.2 554.879,1730.35 556.637,1731.97 C558.395,1733.59 560.75,1734.39 563.703,1734.39 C566.844,1734.39 569.246,1733.57 570.91,1731.93 C572.574,1730.29 573.406,1727.94 573.406,1724.87 C573.406,1721.89 572.492,1719.61 570.664,1718.01 C568.836,1716.42 566.199,1715.6 562.754,1715.55 L557.867,1715.55 L557.867,1710.24 Z M616.297,1721.81 L623.398,1721.81 L623.398,1727.12 L616.297,1727.12 L616.297,1739 L609.758,1739 L609.758,1727.12 L586.449,1727.12 L586.449,1723.29 L609.371,1687.81 L616.297,1687.81 L616.297,1721.81 Z M593.832,1721.81 L609.758,1721.81 L609.758,1696.71 L608.984,1698.11 L593.832,1721.81 Z M632.258,1713.34 L634.859,1687.81 L661.086,1687.81 L661.086,1693.82 L640.379,1693.82 L638.832,1707.78 C641.34,1706.3 644.188,1705.57 647.375,1705.57 C652.039,1705.57 655.742,1707.11 658.484,1710.21 C661.227,1713.28 662.598,1717.44 662.598,1722.69 C662.598,1727.96 661.168,1732.12 658.309,1735.17 C655.473,1738.19 651.5,1739.7 646.391,1739.7 C641.867,1739.7 638.176,1738.45 635.316,1735.94 C632.457,1733.43 630.828,1729.96 630.43,1725.54 L636.582,1725.54 C636.98,1728.46 638.023,1730.68 639.711,1732.18 C641.398,1733.66 643.625,1734.39 646.391,1734.39 C649.414,1734.39 651.781,1733.36 653.492,1731.3 C655.227,1729.24 656.094,1726.39 656.094,1722.76 C656.094,1719.34 655.156,1716.59 653.281,1714.53 C651.43,1712.45 648.957,1711.4 645.863,1711.4 C643.027,1711.4 640.801,1712.02 639.184,1713.27 L637.461,1714.67 L632.258,1713.34 Z" id="Shape" fill="#000000"></path>
        </g>
    </g>
</svg>