<?xml version="1.0" encoding="UTF-8"?>
<svg width="668px" height="942px" viewBox="0 0 668 942" version="1.1" xmlns="http://www.w3.org/2000/svg" xmlns:xlink="http://www.w3.org/1999/xlink">
    <title>Group 7</title>
    <g id="Page-1" stroke="none" stroke-width="1" fill="none" fill-rule="evenodd">
        <g id="Group-7" fill-rule="nonzero">
            <rect id="Rectangle" fill="#C4C4C4" x="0" y="0" width="668" height="942"></rect>
            <path d="M216.469,409.469 L216.469,414.375 L215.406,414.375 C210.906,414.458 207.323,415.792 204.656,418.375 C201.99,420.958 200.448,424.594 200.031,429.281 C202.427,426.531 205.698,425.156 209.844,425.156 C213.802,425.156 216.958,426.552 219.312,429.344 C221.688,432.135 222.875,435.74 222.875,440.156 C222.875,444.844 221.594,448.594 219.031,451.406 C216.49,454.219 213.073,455.625 208.781,455.625 C204.427,455.625 200.896,453.958 198.188,450.625 C195.479,447.271 194.125,442.958 194.125,437.688 L194.125,435.469 C194.125,427.094 195.906,420.698 199.469,416.281 C203.052,411.844 208.375,409.573 215.438,409.469 L216.469,409.469 Z M208.875,429.969 C206.896,429.969 205.073,430.562 203.406,431.75 C201.74,432.938 200.583,434.427 199.938,436.219 L199.938,438.344 C199.938,442.094 200.781,445.115 202.469,447.406 C204.156,449.698 206.26,450.844 208.781,450.844 C211.385,450.844 213.427,449.885 214.906,447.969 C216.406,446.052 217.156,443.542 217.156,440.438 C217.156,437.312 216.396,434.792 214.875,432.875 C213.375,430.938 211.375,429.969 208.875,429.969 Z M253.406,409.469 L253.406,414.375 L252.344,414.375 C247.844,414.458 244.26,415.792 241.594,418.375 C238.927,420.958 237.385,424.594 236.969,429.281 C239.365,426.531 242.635,425.156 246.781,425.156 C250.74,425.156 253.896,426.552 256.25,429.344 C258.625,432.135 259.812,435.74 259.812,440.156 C259.812,444.844 258.531,448.594 255.969,451.406 C253.427,454.219 250.01,455.625 245.719,455.625 C241.365,455.625 237.833,453.958 235.125,450.625 C232.417,447.271 231.062,442.958 231.062,437.688 L231.062,435.469 C231.062,427.094 232.844,420.698 236.406,416.281 C239.99,411.844 245.312,409.573 252.375,409.469 L253.406,409.469 Z M245.812,429.969 C243.833,429.969 242.01,430.562 240.344,431.75 C238.677,432.938 237.521,434.427 236.875,436.219 L236.875,438.344 C236.875,442.094 237.719,445.115 239.406,447.406 C241.094,449.698 243.198,450.844 245.719,450.844 C248.323,450.844 250.365,449.885 251.844,447.969 C253.344,446.052 254.094,443.542 254.094,440.438 C254.094,437.312 253.333,434.792 251.812,432.875 C250.312,430.938 248.312,429.969 245.812,429.969 Z M295.25,421.375 C295.25,423.646 294.646,425.667 293.438,427.438 C292.25,429.208 290.635,430.594 288.594,431.594 C290.969,432.615 292.844,434.104 294.219,436.062 C295.615,438.021 296.312,440.24 296.312,442.719 C296.312,446.656 294.979,449.792 292.312,452.125 C289.667,454.458 286.177,455.625 281.844,455.625 C277.469,455.625 273.958,454.458 271.312,452.125 C268.688,449.771 267.375,446.635 267.375,442.719 C267.375,440.26 268.042,438.042 269.375,436.062 C270.729,434.083 272.594,432.583 274.969,431.562 C272.948,430.562 271.354,429.177 270.188,427.406 C269.021,425.635 268.438,423.625 268.438,421.375 C268.438,417.542 269.667,414.5 272.125,412.25 C274.583,410 277.823,408.875 281.844,408.875 C285.844,408.875 289.073,410 291.531,412.25 C294.01,414.5 295.25,417.542 295.25,421.375 Z M290.531,442.594 C290.531,440.052 289.719,437.979 288.094,436.375 C286.49,434.771 284.385,433.969 281.781,433.969 C279.177,433.969 277.083,434.76 275.5,436.344 C273.938,437.927 273.156,440.01 273.156,442.594 C273.156,445.177 273.917,447.208 275.438,448.688 C276.979,450.167 279.115,450.906 281.844,450.906 C284.552,450.906 286.677,450.167 288.219,448.688 C289.76,447.188 290.531,445.156 290.531,442.594 Z M281.844,413.625 C279.573,413.625 277.729,414.333 276.312,415.75 C274.917,417.146 274.219,419.052 274.219,421.469 C274.219,423.781 274.906,425.656 276.281,427.094 C277.677,428.51 279.531,429.219 281.844,429.219 C284.156,429.219 286,428.51 287.375,427.094 C288.771,425.656 289.469,423.781 289.469,421.469 C289.469,419.156 288.75,417.271 287.312,415.812 C285.875,414.354 284.052,413.625 281.844,413.625 Z M333.406,433.531 L340.906,421.188 L347.656,421.188 L336.594,437.906 L348,455 L341.312,455 L333.5,442.344 L325.688,455 L318.969,455 L330.375,437.906 L319.312,421.188 L326,421.188 L333.406,433.531 Z M393.25,435 C392.042,436.438 390.594,437.594 388.906,438.469 C387.24,439.344 385.406,439.781 383.406,439.781 C380.781,439.781 378.49,439.135 376.531,437.844 C374.594,436.552 373.094,434.74 372.031,432.406 C370.969,430.052 370.438,427.458 370.438,424.625 C370.438,421.583 371.01,418.844 372.156,416.406 C373.323,413.969 374.969,412.104 377.094,410.812 C379.219,409.521 381.698,408.875 384.531,408.875 C389.031,408.875 392.573,410.562 395.156,413.938 C397.76,417.292 399.062,421.875 399.062,427.688 L399.062,429.375 C399.062,438.229 397.312,444.698 393.812,448.781 C390.312,452.844 385.031,454.927 377.969,455.031 L376.844,455.031 L376.844,450.156 L378.062,450.156 C382.833,450.073 386.5,448.833 389.062,446.438 C391.625,444.021 393.021,440.208 393.25,435 Z M384.344,435 C386.281,435 388.062,434.406 389.688,433.219 C391.333,432.031 392.531,430.562 393.281,428.812 L393.281,426.5 C393.281,422.708 392.458,419.625 390.812,417.25 C389.167,414.875 387.083,413.688 384.562,413.688 C382.021,413.688 379.979,414.667 378.438,416.625 C376.896,418.562 376.125,421.125 376.125,424.312 C376.125,427.417 376.865,429.979 378.344,432 C379.844,434 381.844,435 384.344,435 Z M432.438,439.719 L438.75,439.719 L438.75,444.438 L432.438,444.438 L432.438,455 L426.625,455 L426.625,444.438 L405.906,444.438 L405.906,441.031 L426.281,409.5 L432.438,409.5 L432.438,439.719 Z M412.469,439.719 L426.625,439.719 L426.625,417.406 L425.938,418.656 L412.469,439.719 Z M474.781,455 L444.969,455 L444.969,450.844 L460.719,433.344 C463.052,430.698 464.656,428.552 465.531,426.906 C466.427,425.24 466.875,423.521 466.875,421.75 C466.875,419.375 466.156,417.427 464.719,415.906 C463.281,414.385 461.365,413.625 458.969,413.625 C456.094,413.625 453.854,414.448 452.25,416.094 C450.667,417.719 449.875,419.99 449.875,422.906 L444.094,422.906 C444.094,418.719 445.438,415.333 448.125,412.75 C450.833,410.167 454.448,408.875 458.969,408.875 C463.198,408.875 466.542,409.99 469,412.219 C471.458,414.427 472.688,417.375 472.688,421.062 C472.688,425.542 469.833,430.875 464.125,437.062 L451.938,450.281 L474.781,450.281 L474.781,455 Z" id="Shape" fill="#000000"></path>
        </g>
    </g>
</svg>