<?xml version="1.0" encoding="UTF-8"?>
<svg width="1335px" height="786px" viewBox="0 0 1335 786" version="1.1" xmlns="http://www.w3.org/2000/svg" xmlns:xlink="http://www.w3.org/1999/xlink">
    <title>Group 5</title>
    <g id="Page-1" stroke="none" stroke-width="1" fill="none" fill-rule="evenodd">
        <g id="Group-5" fill-rule="nonzero">
            <rect id="Rectangle" fill="#C4C4C4" x="0" y="0" width="1335" height="786"></rect>
            <path d="M525.781,401 L519.969,401 L519.969,362.469 L508.312,366.75 L508.312,361.5 L524.875,355.281 L525.781,355.281 L525.781,401 Z M551.625,375.438 L555.969,375.438 C558.698,375.396 560.844,374.677 562.406,373.281 C563.969,371.885 564.75,370 564.75,367.625 C564.75,362.292 562.094,359.625 556.781,359.625 C554.281,359.625 552.281,360.344 550.781,361.781 C549.302,363.198 548.562,365.083 548.562,367.438 L542.781,367.438 C542.781,363.833 544.094,360.844 546.719,358.469 C549.365,356.073 552.719,354.875 556.781,354.875 C561.073,354.875 564.438,356.01 566.875,358.281 C569.312,360.552 570.531,363.708 570.531,367.75 C570.531,369.729 569.885,371.646 568.594,373.5 C567.323,375.354 565.583,376.74 563.375,377.656 C565.875,378.448 567.802,379.76 569.156,381.594 C570.531,383.427 571.219,385.667 571.219,388.312 C571.219,392.396 569.885,395.635 567.219,398.031 C564.552,400.427 561.083,401.625 556.812,401.625 C552.542,401.625 549.062,400.469 546.375,398.156 C543.708,395.844 542.375,392.792 542.375,389 L548.188,389 C548.188,391.396 548.969,393.312 550.531,394.75 C552.094,396.188 554.188,396.906 556.812,396.906 C559.604,396.906 561.74,396.177 563.219,394.719 C564.698,393.26 565.438,391.167 565.438,388.438 C565.438,385.792 564.625,383.76 563,382.344 C561.375,380.927 559.031,380.198 555.969,380.156 L551.625,380.156 L551.625,375.438 Z M588.062,375.438 L592.406,375.438 C595.135,375.396 597.281,374.677 598.844,373.281 C600.406,371.885 601.188,370 601.188,367.625 C601.188,362.292 598.531,359.625 593.219,359.625 C590.719,359.625 588.719,360.344 587.219,361.781 C585.74,363.198 585,365.083 585,367.438 L579.219,367.438 C579.219,363.833 580.531,360.844 583.156,358.469 C585.802,356.073 589.156,354.875 593.219,354.875 C597.51,354.875 600.875,356.01 603.312,358.281 C605.75,360.552 606.969,363.708 606.969,367.75 C606.969,369.729 606.323,371.646 605.031,373.5 C603.76,375.354 602.021,376.74 599.812,377.656 C602.312,378.448 604.24,379.76 605.594,381.594 C606.969,383.427 607.656,385.667 607.656,388.312 C607.656,392.396 606.323,395.635 603.656,398.031 C600.99,400.427 597.521,401.625 593.25,401.625 C588.979,401.625 585.5,400.469 582.812,398.156 C580.146,395.844 578.812,392.792 578.812,389 L584.625,389 C584.625,391.396 585.406,393.312 586.969,394.75 C588.531,396.188 590.625,396.906 593.25,396.906 C596.042,396.906 598.177,396.177 599.656,394.719 C601.135,393.26 601.875,391.167 601.875,388.438 C601.875,385.792 601.062,383.76 599.438,382.344 C597.812,380.927 595.469,380.198 592.406,380.156 L588.062,380.156 L588.062,375.438 Z M618.75,378.188 L621.062,355.5 L644.375,355.5 L644.375,360.844 L625.969,360.844 L624.594,373.25 C626.823,371.938 629.354,371.281 632.188,371.281 C636.333,371.281 639.625,372.656 642.062,375.406 C644.5,378.135 645.719,381.833 645.719,386.5 C645.719,391.188 644.448,394.885 641.906,397.594 C639.385,400.281 635.854,401.625 631.312,401.625 C627.292,401.625 624.01,400.51 621.469,398.281 C618.927,396.052 617.479,392.969 617.125,389.031 L622.594,389.031 C622.948,391.635 623.875,393.604 625.375,394.938 C626.875,396.25 628.854,396.906 631.312,396.906 C634,396.906 636.104,395.99 637.625,394.156 C639.167,392.323 639.938,389.792 639.938,386.562 C639.938,383.521 639.104,381.083 637.438,379.25 C635.792,377.396 633.594,376.469 630.844,376.469 C628.323,376.469 626.344,377.021 624.906,378.125 L623.375,379.375 L618.75,378.188 Z M680.844,379.531 L688.344,367.188 L695.094,367.188 L684.031,383.906 L695.438,401 L688.75,401 L680.938,388.344 L673.125,401 L666.406,401 L677.812,383.906 L666.75,367.188 L673.438,367.188 L680.844,379.531 Z M746.906,358.75 L728.062,401 L722,401 L740.781,360.25 L716.156,360.25 L716.156,355.5 L746.906,355.5 L746.906,358.75 Z M781.562,367.375 C781.562,369.646 780.958,371.667 779.75,373.438 C778.562,375.208 776.948,376.594 774.906,377.594 C777.281,378.615 779.156,380.104 780.531,382.062 C781.927,384.021 782.625,386.24 782.625,388.719 C782.625,392.656 781.292,395.792 778.625,398.125 C775.979,400.458 772.49,401.625 768.156,401.625 C763.781,401.625 760.271,400.458 757.625,398.125 C755,395.771 753.688,392.635 753.688,388.719 C753.688,386.26 754.354,384.042 755.688,382.062 C757.042,380.083 758.906,378.583 761.281,377.562 C759.26,376.562 757.667,375.177 756.5,373.406 C755.333,371.635 754.75,369.625 754.75,367.375 C754.75,363.542 755.979,360.5 758.438,358.25 C760.896,356 764.135,354.875 768.156,354.875 C772.156,354.875 775.385,356 777.844,358.25 C780.323,360.5 781.562,363.542 781.562,367.375 Z M776.844,388.594 C776.844,386.052 776.031,383.979 774.406,382.375 C772.802,380.771 770.698,379.969 768.094,379.969 C765.49,379.969 763.396,380.76 761.812,382.344 C760.25,383.927 759.469,386.01 759.469,388.594 C759.469,391.177 760.229,393.208 761.75,394.688 C763.292,396.167 765.427,396.906 768.156,396.906 C770.865,396.906 772.99,396.167 774.531,394.688 C776.073,393.188 776.844,391.156 776.844,388.594 Z M768.156,359.625 C765.885,359.625 764.042,360.333 762.625,361.75 C761.229,363.146 760.531,365.052 760.531,367.469 C760.531,369.781 761.219,371.656 762.594,373.094 C763.99,374.51 765.844,375.219 768.156,375.219 C770.469,375.219 772.312,374.51 773.688,373.094 C775.083,371.656 775.781,369.781 775.781,367.469 C775.781,365.156 775.062,363.271 773.625,361.812 C772.188,360.354 770.365,359.625 768.156,359.625 Z M813.094,355.469 L813.094,360.375 L812.031,360.375 C807.531,360.458 803.948,361.792 801.281,364.375 C798.615,366.958 797.073,370.594 796.656,375.281 C799.052,372.531 802.323,371.156 806.469,371.156 C810.427,371.156 813.583,372.552 815.938,375.344 C818.312,378.135 819.5,381.74 819.5,386.156 C819.5,390.844 818.219,394.594 815.656,397.406 C813.115,400.219 809.698,401.625 805.406,401.625 C801.052,401.625 797.521,399.958 794.812,396.625 C792.104,393.271 790.75,388.958 790.75,383.688 L790.75,381.469 C790.75,373.094 792.531,366.698 796.094,362.281 C799.677,357.844 805,355.573 812.062,355.469 L813.094,355.469 Z M805.5,375.969 C803.521,375.969 801.698,376.562 800.031,377.75 C798.365,378.938 797.208,380.427 796.562,382.219 L796.562,384.344 C796.562,388.094 797.406,391.115 799.094,393.406 C800.781,395.698 802.885,396.844 805.406,396.844 C808.01,396.844 810.052,395.885 811.531,393.969 C813.031,392.052 813.781,389.542 813.781,386.438 C813.781,383.312 813.021,380.792 811.5,378.875 C810,376.938 808,375.969 805.5,375.969 Z" id="Shape" fill="#000000"></path>
        </g>
    </g>
</svg>