<?xml version="1.0" encoding="UTF-8"?>
<svg width="520px" height="660px" viewBox="0 0 520 660" version="1.1" xmlns="http://www.w3.org/2000/svg" xmlns:xlink="http://www.w3.org/1999/xlink">
    <title>Group 6</title>
    <g id="Page-1" stroke="none" stroke-width="1" fill="none" fill-rule="evenodd">
        <g id="Group-6" fill-rule="nonzero">
            <rect id="Rectangle" fill="#C4C4C4" x="0" y="0" width="520" height="660"></rect>
            <path d="M124.438,315.188 L126.75,292.5 L150.062,292.5 L150.062,297.844 L131.656,297.844 L130.281,310.25 C132.51,308.938 135.042,308.281 137.875,308.281 C142.021,308.281 145.312,309.656 147.75,312.406 C150.188,315.135 151.406,318.833 151.406,323.5 C151.406,328.188 150.135,331.885 147.594,334.594 C145.073,337.281 141.542,338.625 137,338.625 C132.979,338.625 129.698,337.51 127.156,335.281 C124.615,333.052 123.167,329.969 122.812,326.031 L128.281,326.031 C128.635,328.635 129.562,330.604 131.062,331.938 C132.562,333.25 134.542,333.906 137,333.906 C139.688,333.906 141.792,332.99 143.312,331.156 C144.854,329.323 145.625,326.792 145.625,323.562 C145.625,320.521 144.792,318.083 143.125,316.25 C141.479,314.396 139.281,313.469 136.531,313.469 C134.01,313.469 132.031,314.021 130.594,315.125 L129.062,316.375 L124.438,315.188 Z M188.031,338 L158.219,338 L158.219,333.844 L173.969,316.344 C176.302,313.698 177.906,311.552 178.781,309.906 C179.677,308.24 180.125,306.521 180.125,304.75 C180.125,302.375 179.406,300.427 177.969,298.906 C176.531,297.385 174.615,296.625 172.219,296.625 C169.344,296.625 167.104,297.448 165.5,299.094 C163.917,300.719 163.125,302.99 163.125,305.906 L157.344,305.906 C157.344,301.719 158.688,298.333 161.375,295.75 C164.083,293.167 167.698,291.875 172.219,291.875 C176.448,291.875 179.792,292.99 182.25,295.219 C184.708,297.427 185.938,300.375 185.938,304.062 C185.938,308.542 183.083,313.875 177.375,320.062 L165.188,333.281 L188.031,333.281 L188.031,338 Z M223.188,318.594 C223.188,325.365 222.031,330.396 219.719,333.688 C217.406,336.979 213.792,338.625 208.875,338.625 C204.021,338.625 200.427,337.021 198.094,333.812 C195.76,330.583 194.552,325.771 194.469,319.375 L194.469,311.656 C194.469,304.969 195.625,300 197.938,296.75 C200.25,293.5 203.875,291.875 208.812,291.875 C213.708,291.875 217.312,293.448 219.625,296.594 C221.938,299.719 223.125,304.552 223.188,311.094 L223.188,318.594 Z M217.406,310.688 C217.406,305.792 216.719,302.229 215.344,300 C213.969,297.75 211.792,296.625 208.812,296.625 C205.854,296.625 203.698,297.74 202.344,299.969 C200.99,302.198 200.292,305.625 200.25,310.25 L200.25,319.5 C200.25,324.417 200.958,328.052 202.375,330.406 C203.812,332.74 205.979,333.906 208.875,333.906 C211.729,333.906 213.844,332.802 215.219,330.594 C216.615,328.385 217.344,324.906 217.406,320.156 L217.406,310.688 Z M259.406,316.531 L266.906,304.188 L273.656,304.188 L262.594,320.906 L274,338 L267.312,338 L259.5,325.344 L251.688,338 L244.969,338 L256.375,320.906 L245.312,304.188 L252,304.188 L259.406,316.531 Z M318.781,292.469 L318.781,297.375 L317.719,297.375 C313.219,297.458 309.635,298.792 306.969,301.375 C304.302,303.958 302.76,307.594 302.344,312.281 C304.74,309.531 308.01,308.156 312.156,308.156 C316.115,308.156 319.271,309.552 321.625,312.344 C324,315.135 325.188,318.74 325.188,323.156 C325.188,327.844 323.906,331.594 321.344,334.406 C318.802,337.219 315.385,338.625 311.094,338.625 C306.74,338.625 303.208,336.958 300.5,333.625 C297.792,330.271 296.438,325.958 296.438,320.688 L296.438,318.469 C296.438,310.094 298.219,303.698 301.781,299.281 C305.365,294.844 310.688,292.573 317.75,292.469 L318.781,292.469 Z M311.188,312.969 C309.208,312.969 307.385,313.562 305.719,314.75 C304.052,315.938 302.896,317.427 302.25,319.219 L302.25,321.344 C302.25,325.094 303.094,328.115 304.781,330.406 C306.469,332.698 308.573,333.844 311.094,333.844 C313.698,333.844 315.74,332.885 317.219,330.969 C318.719,329.052 319.469,326.542 319.469,323.438 C319.469,320.312 318.708,317.792 317.188,315.875 C315.688,313.938 313.688,312.969 311.188,312.969 Z M355.219,292.469 L355.219,297.375 L354.156,297.375 C349.656,297.458 346.073,298.792 343.406,301.375 C340.74,303.958 339.198,307.594 338.781,312.281 C341.177,309.531 344.448,308.156 348.594,308.156 C352.552,308.156 355.708,309.552 358.062,312.344 C360.438,315.135 361.625,318.74 361.625,323.156 C361.625,327.844 360.344,331.594 357.781,334.406 C355.24,337.219 351.823,338.625 347.531,338.625 C343.177,338.625 339.646,336.958 336.938,333.625 C334.229,330.271 332.875,325.958 332.875,320.688 L332.875,318.469 C332.875,310.094 334.656,303.698 338.219,299.281 C341.802,294.844 347.125,292.573 354.188,292.469 L355.219,292.469 Z M347.625,312.969 C345.646,312.969 343.823,313.562 342.156,314.75 C340.49,315.938 339.333,317.427 338.688,319.219 L338.688,321.344 C338.688,325.094 339.531,328.115 341.219,330.406 C342.906,332.698 345.01,333.844 347.531,333.844 C350.135,333.844 352.177,332.885 353.656,330.969 C355.156,329.052 355.906,326.542 355.906,323.438 C355.906,320.312 355.146,317.792 353.625,315.875 C352.125,313.938 350.125,312.969 347.625,312.969 Z M397.5,318.594 C397.5,325.365 396.344,330.396 394.031,333.688 C391.719,336.979 388.104,338.625 383.188,338.625 C378.333,338.625 374.74,337.021 372.406,333.812 C370.073,330.583 368.865,325.771 368.781,319.375 L368.781,311.656 C368.781,304.969 369.938,300 372.25,296.75 C374.562,293.5 378.188,291.875 383.125,291.875 C388.021,291.875 391.625,293.448 393.938,296.594 C396.25,299.719 397.438,304.552 397.5,311.094 L397.5,318.594 Z M391.719,310.688 C391.719,305.792 391.031,302.229 389.656,300 C388.281,297.75 386.104,296.625 383.125,296.625 C380.167,296.625 378.01,297.74 376.656,299.969 C375.302,302.198 374.604,305.625 374.562,310.25 L374.562,319.5 C374.562,324.417 375.271,328.052 376.688,330.406 C378.125,332.74 380.292,333.906 383.188,333.906 C386.042,333.906 388.156,332.802 389.531,330.594 C390.927,328.385 391.656,324.906 391.719,320.156 L391.719,310.688 Z" id="Shape" fill="#000000"></path>
        </g>
    </g>
</svg>