<?xml version="1.0" encoding="UTF-8"?>
<svg width="660px" height="928px" viewBox="0 0 660 928" version="1.1" xmlns="http://www.w3.org/2000/svg" xmlns:xlink="http://www.w3.org/1999/xlink">
    <title>Group 8 (2)</title>
    <g id="Page-1" stroke="none" stroke-width="1" fill="none" fill-rule="evenodd">
        <g id="Group-8-(2)" fill-rule="nonzero">
            <rect id="Rectangle" fill="#C4C4C4" x="0" y="0" width="660" height="928"></rect>
            <path d="M212.906,402.469 L212.906,407.375 L211.844,407.375 C207.344,407.458 203.76,408.792 201.094,411.375 C198.427,413.958 196.885,417.594 196.469,422.281 C198.865,419.531 202.135,418.156 206.281,418.156 C210.24,418.156 213.396,419.552 215.75,422.344 C218.125,425.135 219.312,428.74 219.312,433.156 C219.312,437.844 218.031,441.594 215.469,444.406 C212.927,447.219 209.51,448.625 205.219,448.625 C200.865,448.625 197.333,446.958 194.625,443.625 C191.917,440.271 190.562,435.958 190.562,430.688 L190.562,428.469 C190.562,420.094 192.344,413.698 195.906,409.281 C199.49,404.844 204.812,402.573 211.875,402.469 L212.906,402.469 Z M205.312,422.969 C203.333,422.969 201.51,423.562 199.844,424.75 C198.177,425.938 197.021,427.427 196.375,429.219 L196.375,431.344 C196.375,435.094 197.219,438.115 198.906,440.406 C200.594,442.698 202.698,443.844 205.219,443.844 C207.823,443.844 209.865,442.885 211.344,440.969 C212.844,439.052 213.594,436.542 213.594,433.438 C213.594,430.312 212.833,427.792 211.312,425.875 C209.812,423.938 207.812,422.969 205.312,422.969 Z M249.844,402.469 L249.844,407.375 L248.781,407.375 C244.281,407.458 240.698,408.792 238.031,411.375 C235.365,413.958 233.823,417.594 233.406,422.281 C235.802,419.531 239.073,418.156 243.219,418.156 C247.177,418.156 250.333,419.552 252.688,422.344 C255.062,425.135 256.25,428.74 256.25,433.156 C256.25,437.844 254.969,441.594 252.406,444.406 C249.865,447.219 246.448,448.625 242.156,448.625 C237.802,448.625 234.271,446.958 231.562,443.625 C228.854,440.271 227.5,435.958 227.5,430.688 L227.5,428.469 C227.5,420.094 229.281,413.698 232.844,409.281 C236.427,404.844 241.75,402.573 248.812,402.469 L249.844,402.469 Z M242.25,422.969 C240.271,422.969 238.448,423.562 236.781,424.75 C235.115,425.938 233.958,427.427 233.312,429.219 L233.312,431.344 C233.312,435.094 234.156,438.115 235.844,440.406 C237.531,442.698 239.635,443.844 242.156,443.844 C244.76,443.844 246.802,442.885 248.281,440.969 C249.781,439.052 250.531,436.542 250.531,433.438 C250.531,430.312 249.771,427.792 248.25,425.875 C246.75,423.938 244.75,422.969 242.25,422.969 Z M292.625,428.594 C292.625,435.365 291.469,440.396 289.156,443.688 C286.844,446.979 283.229,448.625 278.312,448.625 C273.458,448.625 269.865,447.021 267.531,443.812 C265.198,440.583 263.99,435.771 263.906,429.375 L263.906,421.656 C263.906,414.969 265.062,410 267.375,406.75 C269.688,403.5 273.312,401.875 278.25,401.875 C283.146,401.875 286.75,403.448 289.062,406.594 C291.375,409.719 292.562,414.552 292.625,421.094 L292.625,428.594 Z M286.844,420.688 C286.844,415.792 286.156,412.229 284.781,410 C283.406,407.75 281.229,406.625 278.25,406.625 C275.292,406.625 273.135,407.74 271.781,409.969 C270.427,412.198 269.729,415.625 269.688,420.25 L269.688,429.5 C269.688,434.417 270.396,438.052 271.812,440.406 C273.25,442.74 275.417,443.906 278.312,443.906 C281.167,443.906 283.281,442.802 284.656,440.594 C286.052,438.385 286.781,434.906 286.844,430.156 L286.844,420.688 Z M329.844,426.531 L337.344,414.188 L344.094,414.188 L333.031,430.906 L344.438,448 L337.75,448 L329.938,435.344 L322.125,448 L315.406,448 L326.812,430.906 L315.75,414.188 L322.438,414.188 L329.844,426.531 Z M389.688,428 C388.479,429.438 387.031,430.594 385.344,431.469 C383.677,432.344 381.844,432.781 379.844,432.781 C377.219,432.781 374.927,432.135 372.969,430.844 C371.031,429.552 369.531,427.74 368.469,425.406 C367.406,423.052 366.875,420.458 366.875,417.625 C366.875,414.583 367.448,411.844 368.594,409.406 C369.76,406.969 371.406,405.104 373.531,403.812 C375.656,402.521 378.135,401.875 380.969,401.875 C385.469,401.875 389.01,403.562 391.594,406.938 C394.198,410.292 395.5,414.875 395.5,420.688 L395.5,422.375 C395.5,431.229 393.75,437.698 390.25,441.781 C386.75,445.844 381.469,447.927 374.406,448.031 L373.281,448.031 L373.281,443.156 L374.5,443.156 C379.271,443.073 382.938,441.833 385.5,439.438 C388.062,437.021 389.458,433.208 389.688,428 Z M380.781,428 C382.719,428 384.5,427.406 386.125,426.219 C387.771,425.031 388.969,423.562 389.719,421.812 L389.719,419.5 C389.719,415.708 388.896,412.625 387.25,410.25 C385.604,407.875 383.521,406.688 381,406.688 C378.458,406.688 376.417,407.667 374.875,409.625 C373.333,411.562 372.562,414.125 372.562,417.312 C372.562,420.417 373.302,422.979 374.781,425 C376.281,427 378.281,428 380.781,428 Z M434.281,448 L404.469,448 L404.469,443.844 L420.219,426.344 C422.552,423.698 424.156,421.552 425.031,419.906 C425.927,418.24 426.375,416.521 426.375,414.75 C426.375,412.375 425.656,410.427 424.219,408.906 C422.781,407.385 420.865,406.625 418.469,406.625 C415.594,406.625 413.354,407.448 411.75,409.094 C410.167,410.719 409.375,412.99 409.375,415.906 L403.594,415.906 C403.594,411.719 404.938,408.333 407.625,405.75 C410.333,403.167 413.948,401.875 418.469,401.875 C422.698,401.875 426.042,402.99 428.5,405.219 C430.958,407.427 432.188,410.375 432.188,414.062 C432.188,418.542 429.333,423.875 423.625,430.062 L411.438,443.281 L434.281,443.281 L434.281,448 Z M469,414.375 C469,416.646 468.396,418.667 467.188,420.438 C466,422.208 464.385,423.594 462.344,424.594 C464.719,425.615 466.594,427.104 467.969,429.062 C469.365,431.021 470.062,433.24 470.062,435.719 C470.062,439.656 468.729,442.792 466.062,445.125 C463.417,447.458 459.927,448.625 455.594,448.625 C451.219,448.625 447.708,447.458 445.062,445.125 C442.438,442.771 441.125,439.635 441.125,435.719 C441.125,433.26 441.792,431.042 443.125,429.062 C444.479,427.083 446.344,425.583 448.719,424.562 C446.698,423.562 445.104,422.177 443.938,420.406 C442.771,418.635 442.188,416.625 442.188,414.375 C442.188,410.542 443.417,407.5 445.875,405.25 C448.333,403 451.573,401.875 455.594,401.875 C459.594,401.875 462.823,403 465.281,405.25 C467.76,407.5 469,410.542 469,414.375 Z M464.281,435.594 C464.281,433.052 463.469,430.979 461.844,429.375 C460.24,427.771 458.135,426.969 455.531,426.969 C452.927,426.969 450.833,427.76 449.25,429.344 C447.688,430.927 446.906,433.01 446.906,435.594 C446.906,438.177 447.667,440.208 449.188,441.688 C450.729,443.167 452.865,443.906 455.594,443.906 C458.302,443.906 460.427,443.167 461.969,441.688 C463.51,440.188 464.281,438.156 464.281,435.594 Z M455.594,406.625 C453.323,406.625 451.479,407.333 450.062,408.75 C448.667,410.146 447.969,412.052 447.969,414.469 C447.969,416.781 448.656,418.656 450.031,420.094 C451.427,421.51 453.281,422.219 455.594,422.219 C457.906,422.219 459.75,421.51 461.125,420.094 C462.521,418.656 463.219,416.781 463.219,414.469 C463.219,412.156 462.5,410.271 461.062,408.812 C459.625,407.354 457.802,406.625 455.594,406.625 Z" id="Shape" fill="#000000"></path>
        </g>
    </g>
</svg>